<svg xmlns="http://www.w3.org/2000/svg" xmlns:xlink="http://www.w3.org/1999/xlink" x="0" y="0" width="661.433349609375" height="162.4333292643229" style="
        width:661.433349609375px;
        height:162.4333292643229px;
        background: #FFF;
        fill: none;
">
        
        
        <svg xmlns="http://www.w3.org/2000/svg" class="role-diagram-draw-area"><g class="shapes-region" style="stroke: black; fill: none;"><g class="arrow-line"><path class="connection real" stroke-dasharray="" d="  M100,78 L529.23,77.62" style="stroke: rgb(0, 0, 0); stroke-width: 1px; fill: none; fill-opacity: 1;"/><g stroke="#000" transform="matrix(-0.9999996192282494,0.0008726645152345744,-0.0008726645152345744,-0.9999996192282494,531.2333374023438,77.61666870117188)" style="stroke: rgb(0, 0, 0); stroke-width: 1px;"><path d=" M10.93,-3.29 Q4.96,-0.45 0,0 Q4.96,0.45 10.93,3.29"/></g><g stroke="#000" transform="matrix(-0.9999996192282494,0.0008726645152345744,-0.0008726645152345744,-0.9999996192282494,100.00000000000001,78)" style="stroke: rgb(0, 0, 0); stroke-width: 1px;"><path d=" M0,5.59 L0,-5.59"/></g></g><g class="composite-shape"><path class="real" d=" M101.08,91.99 Q101.09,98.99 108.09,98.98 L239.67,98.72 Q249.67,98.7 249.68,105.7 Q249.67,98.7 259.67,98.68 M256.67,98.69 L391.25,98.43 Q398.25,98.42 398.23,91.42" style="stroke-width: 1px; stroke: rgb(0, 0, 0); fill: none; fill-opacity: 1;"/></g><g class="arrow-line"><path class="connection real" stroke-dasharray="" d="  M399,78 L486.23,77.42" style="stroke: rgb(65, 117, 5); stroke-opacity: 1; stroke-width: 8px; fill: none; fill-opacity: 1;"/></g><g class="composite-shape"><path class="real" d=" M400.23,91.42 Q400.23,98.42 407.23,98.42 L434.72,98.42 Q444.72,98.42 444.72,105.42 Q444.72,98.42 454.72,98.42 M451.72,98.42 L479.23,98.42 Q486.23,98.42 486.23,91.42" style="stroke-width: 1px; stroke: rgb(0, 0, 0); fill: none; fill-opacity: 1;"/></g><g class="composite-shape"><path class="real" d=" M100.41,125.32 Q100.41,132.32 107.41,132.32 L283.41,132.32 Q293.41,132.32 293.41,139.32 Q293.41,132.32 303.41,132.32 M300.41,132.32 L479.41,132.32 Q486.41,132.32 486.41,125.32" style="stroke-width: 1px; stroke: rgb(0, 0, 0); fill: none; fill-opacity: 1;"/></g><g class="arrow-line"><path class="connection real" stroke-dasharray="" d="  M345.83,44.66 C358.5,61.21 378.07,60.06 398.94,68.93" style="stroke: rgb(74, 144, 226); stroke-opacity: 1; stroke-width: 1px; fill: none; fill-opacity: 1;"/><g stroke="rgb(74,144,226)" stroke-opacity="1" transform="matrix(-0.9121201161722731,-0.4099230338415726,0.4099230338415726,-0.9121201161722731,400.5458170572917,69.63749821980792)" style="stroke: rgb(74, 144, 226); stroke-width: 1px;"><path d=" M10.93,-3.29 Q4.96,-0.45 0,0 Q4.96,0.45 10.93,3.29"/></g></g><g class="arrow-line"><path class="connection real" stroke-dasharray="" d="  M367.83,23.99 C366.85,46.53 388.2,44.74 399.85,68.17" style="stroke: rgb(245, 166, 35); stroke-opacity: 1; stroke-width: 1px; fill: none; fill-opacity: 1;"/><g stroke="rgb(245,166,35)" stroke-opacity="1" transform="matrix(-0.41723271366176534,-0.90879968235604,0.90879968235604,-0.41723271366176534,400.5458170572917,69.63749821980798)" style="stroke: rgb(245, 166, 35); stroke-width: 1px;"><path d=" M10.93,-3.29 Q4.96,-0.45 0,0 Q4.96,0.45 10.93,3.29"/></g></g><g class="arrow-line"><path class="connection real" stroke-dasharray="" d="  M424.41,23.99 C422.21,36.73 411.52,39.22 401.18,67.85" style="stroke: rgb(208, 2, 27); stroke-opacity: 1; stroke-width: 1px; fill: none; fill-opacity: 1;"/><g stroke="rgb(208,2,27)" stroke-opacity="1" transform="matrix(0.3282072675677871,-0.9446057323114692,0.9446057323114692,0.3282072675677871,400.5458170572917,69.63749821980792)" style="stroke: rgb(208, 2, 27); stroke-width: 1px;"><path d=" M10.93,-3.29 Q4.96,-0.45 0,0 Q4.96,0.45 10.93,3.29"/></g></g><g class="arrow-line"><path class="connection real" stroke-dasharray="" d="  M475.33,35.67 C435.02,62.91 432.48,46.5 401.96,68.6" style="stroke: rgb(0, 0, 0); stroke-width: 1px; fill: none; fill-opacity: 1;"/><g stroke="#000" transform="matrix(0.8030255480194595,-0.5959446024825182,0.5959446024825182,0.8030255480194595,400.5458170572917,69.63749821980795)" style="stroke: rgb(0, 0, 0); stroke-width: 1px;"><path d=" M10.93,-3.29 Q4.96,-0.45 0,0 Q4.96,0.45 10.93,3.29"/></g></g><g class="arrow-line"><path class="connection real" stroke-dasharray="" d="  M520.41,61.32 C513.22,69.82 504.76,57.18 487.31,76.21" style="stroke: rgb(0, 0, 0); stroke-width: 1px; fill: none; fill-opacity: 1;"/><g stroke="#000" transform="matrix(0.6586894601186801,-0.7524149088957247,0.7524149088957247,0.6586894601186801,486.23333740234375,77.41667175292969)" style="stroke: rgb(0, 0, 0); stroke-width: 1px;"><path d=" M10.93,-3.29 Q4.96,-0.45 0,0 Q4.96,0.45 10.93,3.29"/></g></g><g class="intersections-group"><g style="stroke: rgb(0, 0, 0); stroke-width: 1px; fill: none; fill-opacity: 1;"><g/></g></g></g><g/><g/><g/></svg>
        <svg xmlns="http://www.w3.org/2000/svg" xmlns:xlink="http://www.w3.org/1999/xlink" width="660" height="161" style="width:660px;height:161px;font-family:Asana-Math, Asana;background:#FFF;"><g><g><g><text x="226.71112060546875" y="104.61112467447916" style="white-space:pre;stroke:none;fill:rgb(0,0,0);fill-opacity:1;font-size:15px;font-family:&quot;Times New Roman&quot;, Times, serif;font-weight:700;font-style:normal;dominant-baseline:text-before-edge;text-decoration:rgb(0, 0, 0);">MTTF</text></g></g></g><g><g><g><text x="271.0444539388021" y="138.9444580078125" style="white-space:pre;stroke:none;fill:rgb(0,0,0);fill-opacity:1;font-size:15px;font-family:&quot;Times New Roman&quot;, Times, serif;font-weight:700;font-style:normal;dominant-baseline:text-before-edge;text-decoration:rgb(0, 0, 0);">MTBF</text></g></g></g><g><g><g><text x="420.71112060546875" y="103.9444580078125" style="white-space:pre;stroke:none;fill:rgb(0,0,0);fill-opacity:1;font-size:15px;font-family:&quot;Times New Roman&quot;, Times, serif;font-weight:700;font-style:normal;dominant-baseline:text-before-edge;text-decoration:rgb(0, 0, 0);">MTTR</text></g></g></g><g><g><g><text x="415.71112060546875" y="62.199991861979164" style="white-space:pre;stroke:none;fill:rgb(65,117,5);fill-opacity:1;font-size:10.5px;font-family:&quot;Times New Roman&quot;, Times, serif;font-weight:400;font-style:normal;dominant-baseline:text-before-edge;text-decoration:rgb(65, 117, 5);">Recover  Time</text></g></g></g><g><g><g><text x="324.71112060546875" y="29.711100260416664" style="white-space:pre;stroke:none;fill:rgb(74,144,226);fill-opacity:1;font-size:13.5px;font-family:&quot;Times New Roman&quot;, Times, serif;font-weight:400;font-style:normal;dominant-baseline:text-before-edge;text-decoration:rgb(74, 144, 226);">Fault</text></g></g></g><g><g><g><text x="222.71112060546875" y="63.188883463541664" style="white-space:pre;stroke:none;fill:rgb(0,0,0);fill-opacity:1;font-size:10.5px;font-family:&quot;Times New Roman&quot;, Times, serif;font-weight:400;font-style:normal;dominant-baseline:text-before-edge;text-decoration:rgb(0, 0, 0);">Operating Time</text></g></g></g><g><g><g><text x="348.0444539388021" y="11.03333536783854" style="white-space:pre;stroke:none;fill:rgb(245,166,35);fill-opacity:1;font-size:13.5px;font-family:&quot;Times New Roman&quot;, Times, serif;font-weight:400;font-style:normal;dominant-baseline:text-before-edge;text-decoration:rgb(245, 166, 35);">Error</text></g></g></g><g><g><g><text x="389.28887939453125" y="8.877777099609368" style="white-space:pre;stroke:none;fill:rgb(208,2,27);fill-opacity:1;font-size:13.5px;font-family:&quot;Times New Roman&quot;, Times, serif;font-weight:400;font-style:normal;dominant-baseline:text-before-edge;text-decoration:rgb(208, 2, 27);">System Failure</text></g></g></g><g><g><g><text x="448.0555623372396" y="22.377766927083336" style="white-space:pre;stroke:none;fill:rgb(0,0,0);fill-opacity:1;font-size:13.5px;font-family:&quot;Times New Roman&quot;, Times, serif;font-weight:400;font-style:normal;dominant-baseline:text-before-edge;text-decoration:rgb(0, 0, 0);">Error detection</text></g></g></g><g><g><g><text x="80.04445393880209" y="45.53332519531249" style="white-space:pre;stroke:none;fill:rgb(0,0,0);fill-opacity:1;font-size:10.5px;font-family:&quot;Times New Roman&quot;, Times, serif;font-weight:400;font-style:normal;dominant-baseline:text-before-edge;text-decoration:rgb(0, 0, 0);">Start or restart </text></g></g><g><g><text x="80.04445393880209" y="58.288899739583336" style="white-space:pre;stroke:none;fill:rgb(0,0,0);fill-opacity:1;font-size:10.5px;font-family:&quot;Times New Roman&quot;, Times, serif;font-weight:400;font-style:normal;dominant-baseline:text-before-edge;text-decoration:rgb(0, 0, 0);">of system</text></g></g></g><g><g><g><text x="490.0444539388021" y="48.855550130208336" style="white-space:pre;stroke:none;fill:rgb(0,0,0);fill-opacity:1;font-size:10.5px;font-family:&quot;Times New Roman&quot;, Times, serif;font-weight:400;font-style:normal;dominant-baseline:text-before-edge;text-decoration:rgb(0, 0, 0);">System restart</text></g></g></g></svg>
</svg>
